<?xml version="1.0"?>
<svg xmlns="http://www.w3.org/2000/svg" xmlns:xlink="http://www.w3.org/1999/xlink" width="512" height="512" viewBox="0 0 128 128"><defs><linearGradient id="a" x1="109.233" y1="109.232" x2="18.778" y2="18.777" gradientUnits="userSpaceOnUse"><stop offset="0" stop-color="#32d736"/><stop offset="1" stop-color="#fedb41"/></linearGradient></defs><path d="M97.093,11.237a1.749,1.749,0,0,1,2.427-.483c1.006.672,2,1.381,2.965,2.106a1.75,1.75,0,1,1-2.107,2.794c-.908-.685-1.852-1.355-2.8-1.99A1.75,1.75,0,0,1,97.093,11.237ZM115.3,102.222A63.979,63.979,0,0,1,0,64c0-.211.014-.419.016-.63v-.009A63.611,63.611,0,0,1,11.756,27.1a1.731,1.731,0,0,1,.331-.466A63.932,63.932,0,0,1,83.146,2.93l.036.01a63.952,63.952,0,0,1,7.4,2.823,1.75,1.75,0,0,1-1.455,3.183C87.711,8.3,86.276,7.733,84.83,7.2a9.792,9.792,0,0,1-4.052,7.887L65.75,26.008V41.551l18.291,13.29,15.566-4.293,5.725-17.619a9.806,9.806,0,0,1,6.245-6.3c-1.105-1.405-2.271-2.771-3.508-4.085a1.75,1.75,0,0,1,2.549-2.4,63.922,63.922,0,0,1,4.942,81.708A1.721,1.721,0,0,1,115.3,102.222Zm-1.074-4.535a60.119,60.119,0,0,0,10.215-31.419,9.8,9.8,0,0,1-8.74-1.425L100.634,53.9l-14.47,3.991L78.611,81.132l9.136,12.575h18.576A9.806,9.806,0,0,1,114.227,97.687ZM75.4,79.69l7.045-21.683L64,44.606l-18.444,13.4,3.666,11.284a1.75,1.75,0,1,1-3.328,1.082L42.11,58.728l-14.784-4.8L12.3,64.843a9.8,9.8,0,0,1-8.741,1.425A60.128,60.128,0,0,0,13.769,97.682a9.822,9.822,0,0,1,7.908-3.975H40.253l9.66-13.295c.026-.036.057-.063.085-.1s.078-.094.122-.137.091-.077.138-.114.083-.066.128-.095a1.666,1.666,0,0,1,.161-.087,1.4,1.4,0,0,1,.141-.067,1.753,1.753,0,0,1,.178-.056c.049-.013.1-.028.147-.038a2.083,2.083,0,0,1,.209-.021c.036,0,.07-.011.107-.011ZM3.539,62.467a6.311,6.311,0,0,0,6.7-.456l14.72-10.695L19.34,34.01A6.311,6.311,0,0,0,14.2,29.7,60.131,60.131,0,0,0,3.539,62.467Zm99.5-11.151,14.721,10.7a6.31,6.31,0,0,0,6.7.454A60.206,60.206,0,0,0,113.835,29.7a6.311,6.311,0,0,0-5.175,4.31ZM64,3.5A60.266,60.266,0,0,0,46.777,6.012a6.309,6.309,0,0,0,2.5,6.246L64,22.954l14.722-10.7A6.31,6.31,0,0,0,81.221,6,60.3,60.3,0,0,0,64,3.5ZM16.46,26.648a9.808,9.808,0,0,1,6.208,6.281L28.408,50.6l14.783,4.8L62.25,41.551V26.008L47.222,15.09A9.809,9.809,0,0,1,43.164,7.2,60.768,60.768,0,0,0,16.46,26.648Zm27.389,94.388a6.308,6.308,0,0,0,1.648-6.523L39.873,97.207h-18.2A6.308,6.308,0,0,0,16,100.76,60.748,60.748,0,0,0,43.849,121.036ZM64,124.5a60.3,60.3,0,0,0,16.524-2.313,9.8,9.8,0,0,1-1.349-8.755l5.741-17.667L75.779,83.19H52.221L43.084,95.765l5.741,17.667a9.809,9.809,0,0,1-1.348,8.756A60.331,60.331,0,0,0,64,124.5Zm48-23.738a6.31,6.31,0,0,0-5.68-3.555h-18.2L82.5,114.514a6.307,6.307,0,0,0,1.648,6.522A60.743,60.743,0,0,0,112,100.762Z" fill="url(#a)"/></svg>
